# xmcd CD database file
#
# Track frame offsets:
#	150
#	4790
#	29092
#	59905
#	82485
#	103625
#	126547
#	153245
#	176972
#	213925
#	245992
#	270932
#
# Disc length: 3792 seconds
#
# Revision: 0
# Processed by: cddbd v1.5.2PL0 Copyright (c) Steve Scherf et al.
# Submitted via: CDex 1.70beta2
#
DISCID=b90ece0c
DTITLE=Salsa Swingoza - Aqui Se Puede
DYEAR=2007
DGENRE=Salsa
TTITLE0=Introduction -Uns ist ein Kindlein heut gebor’n
TTITLE1=Perla del mar
TTITLE2=Aqui se puede
TTITLE3=I feel fine
TTITLE4=Juan Pachanga
TTITLE5=Bilongo
TTITLE6=Guarare -Tribute to Ray Barretto
TTITLE7=Lamentation
TTITLE8=Ogun-The God of iron
TTITLE9=Colores en la piel
TTITLE10=Timbalero
TTITLE11=Yes, it is
EXTD=YEAR: 2007
EXTT0=
EXTT1=
EXTT2=
EXTT3=
EXTT4=
EXTT5=
EXTT6=
EXTT7=
EXTT8=
EXTT9=
EXTT10=
EXTT11=
PLAYORDER=
